<?xml version="1.0" encoding="UTF-8" standalone="no"?>
<!DOCTYPE svg PUBLIC "-//W3C//DTD SVG 1.1//EN"
 "http://www.w3.org/Graphics/SVG/1.1/DTD/svg11.dtd">
<!-- Generated by graphviz version 2.38.0 (20140413.2041)
 -->
<!-- Title: structs Pages: 1 -->
<svg width="809pt" height="327pt"
 viewBox="0.00 0.00 808.50 327.00" xmlns="http://www.w3.org/2000/svg" xmlns:xlink="http://www.w3.org/1999/xlink">
<g id="graph0" class="graph" transform="scale(1 1) rotate(0) translate(4 323)">
<title>structs</title>
<polygon fill="white" stroke="none" points="-4,4 -4,-323 804.5,-323 804.5,4 -4,4"/>
<!-- 4 -->
<g id="node1" class="node"><title>4</title>
<path fill="none" stroke="black" d="M145.833,-71.5C145.833,-71.5 323.167,-71.5 323.167,-71.5 328.833,-71.5 334.5,-77.1667 334.5,-82.8333 334.5,-82.8333 334.5,-94.1667 334.5,-94.1667 334.5,-99.8333 328.833,-105.5 323.167,-105.5 323.167,-105.5 145.833,-105.5 145.833,-105.5 140.167,-105.5 134.5,-99.8333 134.5,-94.1667 134.5,-94.1667 134.5,-82.8333 134.5,-82.8333 134.5,-77.1667 140.167,-71.5 145.833,-71.5"/>
<text text-anchor="middle" x="149" y="-86.6" font-family="Times New Roman,serif" font-size="8.00">tree</text>
<polyline fill="none" stroke="black" points="163.5,-71.5 163.5,-105.5 "/>
<text text-anchor="middle" x="181" y="-95.1" font-family="Times New Roman,serif" font-size="8.00">value</text>
<polyline fill="none" stroke="black" points="163.5,-88.5 198.5,-88.5 "/>
<text text-anchor="middle" x="181" y="-78.1" font-family="Times New Roman,serif" font-size="8.00">7</text>
<polyline fill="none" stroke="black" points="198.5,-71.5 198.5,-105.5 "/>
<text text-anchor="middle" x="232.5" y="-95.1" font-family="Times New Roman,serif" font-size="8.00">left</text>
<polyline fill="none" stroke="black" points="198.5,-88.5 266.5,-88.5 "/>
<text text-anchor="middle" x="232.5" y="-78.1" font-family="Times New Roman,serif" font-size="8.00">*main.tree(nil)</text>
<polyline fill="none" stroke="black" points="266.5,-71.5 266.5,-105.5 "/>
<text text-anchor="middle" x="300.5" y="-95.1" font-family="Times New Roman,serif" font-size="8.00">right</text>
<polyline fill="none" stroke="black" points="266.5,-88.5 334.5,-88.5 "/>
<text text-anchor="middle" x="300.5" y="-78.1" font-family="Times New Roman,serif" font-size="8.00">*main.tree(nil)</text>
</g>
<!-- 3 -->
<g id="node2" class="node"><title>3</title>
<path fill="none" stroke="black" d="M11.3333,-142.5C11.3333,-142.5 153.667,-142.5 153.667,-142.5 159.333,-142.5 165,-148.167 165,-153.833 165,-153.833 165,-165.167 165,-165.167 165,-170.833 159.333,-176.5 153.667,-176.5 153.667,-176.5 11.3333,-176.5 11.3333,-176.5 5.66667,-176.5 0,-170.833 0,-165.167 0,-165.167 0,-153.833 0,-153.833 0,-148.167 5.66667,-142.5 11.3333,-142.5"/>
<text text-anchor="middle" x="14.5" y="-157.6" font-family="Times New Roman,serif" font-size="8.00">tree</text>
<polyline fill="none" stroke="black" points="29,-142.5 29,-176.5 "/>
<text text-anchor="middle" x="46.5" y="-166.1" font-family="Times New Roman,serif" font-size="8.00">value</text>
<polyline fill="none" stroke="black" points="29,-159.5 64,-159.5 "/>
<text text-anchor="middle" x="46.5" y="-149.1" font-family="Times New Roman,serif" font-size="8.00">4</text>
<polyline fill="none" stroke="black" points="64,-142.5 64,-176.5 "/>
<text text-anchor="middle" x="98" y="-166.1" font-family="Times New Roman,serif" font-size="8.00">left</text>
<polyline fill="none" stroke="black" points="64,-159.5 132,-159.5 "/>
<text text-anchor="middle" x="98" y="-149.1" font-family="Times New Roman,serif" font-size="8.00">*main.tree(nil)</text>
<polyline fill="none" stroke="black" points="132,-142.5 132,-176.5 "/>
<text text-anchor="middle" x="148.5" y="-157.6" font-family="Times New Roman,serif" font-size="8.00">right</text>
</g>
<!-- 3&#45;&gt;4 -->
<g id="edge1" class="edge"><title>3:f2&#45;&gt;4:name</title>
<path fill="none" stroke="black" d="M166.5,-159.5C174.29,-159.5 167.421,-149.55 165.5,-142 162.126,-128.737 153.802,-125.04 150.203,-115.858"/>
<polygon fill="black" stroke="black" points="153.651,-115.258 148.5,-106 146.753,-116.45 153.651,-115.258"/>
</g>
<!-- 5 -->
<g id="node3" class="node"><title>5</title>
<path fill="none" stroke="black" d="M194.833,-142.5C194.833,-142.5 372.167,-142.5 372.167,-142.5 377.833,-142.5 383.5,-148.167 383.5,-153.833 383.5,-153.833 383.5,-165.167 383.5,-165.167 383.5,-170.833 377.833,-176.5 372.167,-176.5 372.167,-176.5 194.833,-176.5 194.833,-176.5 189.167,-176.5 183.5,-170.833 183.5,-165.167 183.5,-165.167 183.5,-153.833 183.5,-153.833 183.5,-148.167 189.167,-142.5 194.833,-142.5"/>
<text text-anchor="middle" x="198" y="-157.6" font-family="Times New Roman,serif" font-size="8.00">tree</text>
<polyline fill="none" stroke="black" points="212.5,-142.5 212.5,-176.5 "/>
<text text-anchor="middle" x="230" y="-166.1" font-family="Times New Roman,serif" font-size="8.00">value</text>
<polyline fill="none" stroke="black" points="212.5,-159.5 247.5,-159.5 "/>
<text text-anchor="middle" x="230" y="-149.1" font-family="Times New Roman,serif" font-size="8.00">9</text>
<polyline fill="none" stroke="black" points="247.5,-142.5 247.5,-176.5 "/>
<text text-anchor="middle" x="281.5" y="-166.1" font-family="Times New Roman,serif" font-size="8.00">left</text>
<polyline fill="none" stroke="black" points="247.5,-159.5 315.5,-159.5 "/>
<text text-anchor="middle" x="281.5" y="-149.1" font-family="Times New Roman,serif" font-size="8.00">*main.tree(nil)</text>
<polyline fill="none" stroke="black" points="315.5,-142.5 315.5,-176.5 "/>
<text text-anchor="middle" x="349.5" y="-166.1" font-family="Times New Roman,serif" font-size="8.00">right</text>
<polyline fill="none" stroke="black" points="315.5,-159.5 383.5,-159.5 "/>
<text text-anchor="middle" x="349.5" y="-149.1" font-family="Times New Roman,serif" font-size="8.00">*main.tree(nil)</text>
</g>
<!-- 2 -->
<g id="node4" class="node"><title>2</title>
<path fill="none" stroke="black" d="M100.333,-213.5C100.333,-213.5 202.667,-213.5 202.667,-213.5 208.333,-213.5 214,-219.167 214,-224.833 214,-224.833 214,-236.167 214,-236.167 214,-241.833 208.333,-247.5 202.667,-247.5 202.667,-247.5 100.333,-247.5 100.333,-247.5 94.6667,-247.5 89,-241.833 89,-236.167 89,-236.167 89,-224.833 89,-224.833 89,-219.167 94.6667,-213.5 100.333,-213.5"/>
<text text-anchor="middle" x="103.5" y="-228.6" font-family="Times New Roman,serif" font-size="8.00">tree</text>
<polyline fill="none" stroke="black" points="118,-213.5 118,-247.5 "/>
<text text-anchor="middle" x="135.5" y="-237.1" font-family="Times New Roman,serif" font-size="8.00">value</text>
<polyline fill="none" stroke="black" points="118,-230.5 153,-230.5 "/>
<text text-anchor="middle" x="135.5" y="-220.1" font-family="Times New Roman,serif" font-size="8.00">8</text>
<polyline fill="none" stroke="black" points="153,-213.5 153,-247.5 "/>
<text text-anchor="middle" x="167" y="-228.6" font-family="Times New Roman,serif" font-size="8.00">left</text>
<polyline fill="none" stroke="black" points="181,-213.5 181,-247.5 "/>
<text text-anchor="middle" x="197.5" y="-228.6" font-family="Times New Roman,serif" font-size="8.00">right</text>
</g>
<!-- 2&#45;&gt;3 -->
<g id="edge2" class="edge"><title>2:f1&#45;&gt;3:name</title>
<path fill="none" stroke="black" d="M167.5,-213C167.5,-146.963 30.7768,-236.032 15.8227,-186.96"/>
<polygon fill="black" stroke="black" points="19.286,-186.452 14.5,-177 12.3469,-187.374 19.286,-186.452"/>
</g>
<!-- 2&#45;&gt;5 -->
<g id="edge3" class="edge"><title>2:f2&#45;&gt;5:name</title>
<path fill="none" stroke="black" d="M215.5,-230.5C223.29,-230.5 216.421,-220.55 214.5,-213 211.126,-199.737 202.802,-196.04 199.203,-186.858"/>
<polygon fill="black" stroke="black" points="202.651,-186.258 197.5,-177 195.753,-187.45 202.651,-186.258"/>
</g>
<!-- 9 -->
<g id="node5" class="node"><title>9</title>
<path fill="none" stroke="black" d="M611.833,-0.5C611.833,-0.5 789.167,-0.5 789.167,-0.5 794.833,-0.5 800.5,-6.16667 800.5,-11.8333 800.5,-11.8333 800.5,-23.1667 800.5,-23.1667 800.5,-28.8333 794.833,-34.5 789.167,-34.5 789.167,-34.5 611.833,-34.5 611.833,-34.5 606.167,-34.5 600.5,-28.8333 600.5,-23.1667 600.5,-23.1667 600.5,-11.8333 600.5,-11.8333 600.5,-6.16667 606.167,-0.5 611.833,-0.5"/>
<text text-anchor="middle" x="615" y="-15.6" font-family="Times New Roman,serif" font-size="8.00">tree</text>
<polyline fill="none" stroke="black" points="629.5,-0.5 629.5,-34.5 "/>
<text text-anchor="middle" x="647" y="-24.1" font-family="Times New Roman,serif" font-size="8.00">value</text>
<polyline fill="none" stroke="black" points="629.5,-17.5 664.5,-17.5 "/>
<text text-anchor="middle" x="647" y="-7.1" font-family="Times New Roman,serif" font-size="8.00">13</text>
<polyline fill="none" stroke="black" points="664.5,-0.5 664.5,-34.5 "/>
<text text-anchor="middle" x="698.5" y="-24.1" font-family="Times New Roman,serif" font-size="8.00">left</text>
<polyline fill="none" stroke="black" points="664.5,-17.5 732.5,-17.5 "/>
<text text-anchor="middle" x="698.5" y="-7.1" font-family="Times New Roman,serif" font-size="8.00">*main.tree(nil)</text>
<polyline fill="none" stroke="black" points="732.5,-0.5 732.5,-34.5 "/>
<text text-anchor="middle" x="766.5" y="-24.1" font-family="Times New Roman,serif" font-size="8.00">right</text>
<polyline fill="none" stroke="black" points="732.5,-17.5 800.5,-17.5 "/>
<text text-anchor="middle" x="766.5" y="-7.1" font-family="Times New Roman,serif" font-size="8.00">*main.tree(nil)</text>
</g>
<!-- 8 -->
<g id="node6" class="node"><title>8</title>
<path fill="none" stroke="black" d="M547.833,-71.5C547.833,-71.5 685.167,-71.5 685.167,-71.5 690.833,-71.5 696.5,-77.1667 696.5,-82.8333 696.5,-82.8333 696.5,-94.1667 696.5,-94.1667 696.5,-99.8333 690.833,-105.5 685.167,-105.5 685.167,-105.5 547.833,-105.5 547.833,-105.5 542.167,-105.5 536.5,-99.8333 536.5,-94.1667 536.5,-94.1667 536.5,-82.8333 536.5,-82.8333 536.5,-77.1667 542.167,-71.5 547.833,-71.5"/>
<text text-anchor="middle" x="551" y="-86.6" font-family="Times New Roman,serif" font-size="8.00">tree</text>
<polyline fill="none" stroke="black" points="565.5,-71.5 565.5,-105.5 "/>
<text text-anchor="middle" x="583" y="-95.1" font-family="Times New Roman,serif" font-size="8.00">value</text>
<polyline fill="none" stroke="black" points="565.5,-88.5 600.5,-88.5 "/>
<text text-anchor="middle" x="583" y="-78.1" font-family="Times New Roman,serif" font-size="8.00">14</text>
<polyline fill="none" stroke="black" points="600.5,-71.5 600.5,-105.5 "/>
<text text-anchor="middle" x="614.5" y="-86.6" font-family="Times New Roman,serif" font-size="8.00">left</text>
<polyline fill="none" stroke="black" points="628.5,-71.5 628.5,-105.5 "/>
<text text-anchor="middle" x="662.5" y="-95.1" font-family="Times New Roman,serif" font-size="8.00">right</text>
<polyline fill="none" stroke="black" points="628.5,-88.5 696.5,-88.5 "/>
<text text-anchor="middle" x="662.5" y="-78.1" font-family="Times New Roman,serif" font-size="8.00">*main.tree(nil)</text>
</g>
<!-- 8&#45;&gt;9 -->
<g id="edge4" class="edge"><title>8:f1&#45;&gt;9:name</title>
<path fill="none" stroke="black" d="M614.5,-71C614.5,-59 614.5,-53.75 614.5,-45.125"/>
<polygon fill="black" stroke="black" points="618,-45 614.5,-35 611,-45 618,-45"/>
</g>
<!-- 7 -->
<g id="node7" class="node"><title>7</title>
<path fill="none" stroke="black" d="M413.333,-142.5C413.333,-142.5 555.667,-142.5 555.667,-142.5 561.333,-142.5 567,-148.167 567,-153.833 567,-153.833 567,-165.167 567,-165.167 567,-170.833 561.333,-176.5 555.667,-176.5 555.667,-176.5 413.333,-176.5 413.333,-176.5 407.667,-176.5 402,-170.833 402,-165.167 402,-165.167 402,-153.833 402,-153.833 402,-148.167 407.667,-142.5 413.333,-142.5"/>
<text text-anchor="middle" x="416.5" y="-157.6" font-family="Times New Roman,serif" font-size="8.00">tree</text>
<polyline fill="none" stroke="black" points="431,-142.5 431,-176.5 "/>
<text text-anchor="middle" x="448.5" y="-166.1" font-family="Times New Roman,serif" font-size="8.00">value</text>
<polyline fill="none" stroke="black" points="431,-159.5 466,-159.5 "/>
<text text-anchor="middle" x="448.5" y="-149.1" font-family="Times New Roman,serif" font-size="8.00">12</text>
<polyline fill="none" stroke="black" points="466,-142.5 466,-176.5 "/>
<text text-anchor="middle" x="500" y="-166.1" font-family="Times New Roman,serif" font-size="8.00">left</text>
<polyline fill="none" stroke="black" points="466,-159.5 534,-159.5 "/>
<text text-anchor="middle" x="500" y="-149.1" font-family="Times New Roman,serif" font-size="8.00">*main.tree(nil)</text>
<polyline fill="none" stroke="black" points="534,-142.5 534,-176.5 "/>
<text text-anchor="middle" x="550.5" y="-157.6" font-family="Times New Roman,serif" font-size="8.00">right</text>
</g>
<!-- 7&#45;&gt;8 -->
<g id="edge5" class="edge"><title>7:f2&#45;&gt;8:name</title>
<path fill="none" stroke="black" d="M550.5,-142C550.5,-130 550.5,-124.75 550.5,-116.125"/>
<polygon fill="black" stroke="black" points="554,-116 550.5,-106 547,-116 554,-116"/>
</g>
<!-- 10 -->
<g id="node8" class="node"><title>10</title>
<path fill="none" stroke="black" d="M596.833,-142.5C596.833,-142.5 774.167,-142.5 774.167,-142.5 779.833,-142.5 785.5,-148.167 785.5,-153.833 785.5,-153.833 785.5,-165.167 785.5,-165.167 785.5,-170.833 779.833,-176.5 774.167,-176.5 774.167,-176.5 596.833,-176.5 596.833,-176.5 591.167,-176.5 585.5,-170.833 585.5,-165.167 585.5,-165.167 585.5,-153.833 585.5,-153.833 585.5,-148.167 591.167,-142.5 596.833,-142.5"/>
<text text-anchor="middle" x="600" y="-157.6" font-family="Times New Roman,serif" font-size="8.00">tree</text>
<polyline fill="none" stroke="black" points="614.5,-142.5 614.5,-176.5 "/>
<text text-anchor="middle" x="632" y="-166.1" font-family="Times New Roman,serif" font-size="8.00">value</text>
<polyline fill="none" stroke="black" points="614.5,-159.5 649.5,-159.5 "/>
<text text-anchor="middle" x="632" y="-149.1" font-family="Times New Roman,serif" font-size="8.00">16</text>
<polyline fill="none" stroke="black" points="649.5,-142.5 649.5,-176.5 "/>
<text text-anchor="middle" x="683.5" y="-166.1" font-family="Times New Roman,serif" font-size="8.00">left</text>
<polyline fill="none" stroke="black" points="649.5,-159.5 717.5,-159.5 "/>
<text text-anchor="middle" x="683.5" y="-149.1" font-family="Times New Roman,serif" font-size="8.00">*main.tree(nil)</text>
<polyline fill="none" stroke="black" points="717.5,-142.5 717.5,-176.5 "/>
<text text-anchor="middle" x="751.5" y="-166.1" font-family="Times New Roman,serif" font-size="8.00">right</text>
<polyline fill="none" stroke="black" points="717.5,-159.5 785.5,-159.5 "/>
<text text-anchor="middle" x="751.5" y="-149.1" font-family="Times New Roman,serif" font-size="8.00">*main.tree(nil)</text>
</g>
<!-- 6 -->
<g id="node9" class="node"><title>6</title>
<path fill="none" stroke="black" d="M349.333,-213.5C349.333,-213.5 451.667,-213.5 451.667,-213.5 457.333,-213.5 463,-219.167 463,-224.833 463,-224.833 463,-236.167 463,-236.167 463,-241.833 457.333,-247.5 451.667,-247.5 451.667,-247.5 349.333,-247.5 349.333,-247.5 343.667,-247.5 338,-241.833 338,-236.167 338,-236.167 338,-224.833 338,-224.833 338,-219.167 343.667,-213.5 349.333,-213.5"/>
<text text-anchor="middle" x="352.5" y="-228.6" font-family="Times New Roman,serif" font-size="8.00">tree</text>
<polyline fill="none" stroke="black" points="367,-213.5 367,-247.5 "/>
<text text-anchor="middle" x="384.5" y="-237.1" font-family="Times New Roman,serif" font-size="8.00">value</text>
<polyline fill="none" stroke="black" points="367,-230.5 402,-230.5 "/>
<text text-anchor="middle" x="384.5" y="-220.1" font-family="Times New Roman,serif" font-size="8.00">15</text>
<polyline fill="none" stroke="black" points="402,-213.5 402,-247.5 "/>
<text text-anchor="middle" x="416" y="-228.6" font-family="Times New Roman,serif" font-size="8.00">left</text>
<polyline fill="none" stroke="black" points="430,-213.5 430,-247.5 "/>
<text text-anchor="middle" x="446.5" y="-228.6" font-family="Times New Roman,serif" font-size="8.00">right</text>
</g>
<!-- 6&#45;&gt;7 -->
<g id="edge6" class="edge"><title>6:f1&#45;&gt;7:name</title>
<path fill="none" stroke="black" d="M416.5,-213C416.5,-201 416.5,-195.75 416.5,-187.125"/>
<polygon fill="black" stroke="black" points="420,-187 416.5,-177 413,-187 420,-187"/>
</g>
<!-- 6&#45;&gt;10 -->
<g id="edge7" class="edge"><title>6:f2&#45;&gt;10:name</title>
<path fill="none" stroke="black" d="M464.5,-230.5C519.665,-230.5 537.822,-216.335 576.5,-177 578.842,-174.618 579.27,-171.427 579.432,-168.422"/>
<polygon fill="black" stroke="black" points="582.604,-169.924 584.5,-159.5 576.517,-166.466 582.604,-169.924"/>
</g>
<!-- 1 -->
<g id="node10" class="node"><title>1</title>
<path fill="none" stroke="black" d="M145.333,-284.5C145.333,-284.5 247.667,-284.5 247.667,-284.5 253.333,-284.5 259,-290.167 259,-295.833 259,-295.833 259,-307.167 259,-307.167 259,-312.833 253.333,-318.5 247.667,-318.5 247.667,-318.5 145.333,-318.5 145.333,-318.5 139.667,-318.5 134,-312.833 134,-307.167 134,-307.167 134,-295.833 134,-295.833 134,-290.167 139.667,-284.5 145.333,-284.5"/>
<text text-anchor="middle" x="148.5" y="-299.6" font-family="Times New Roman,serif" font-size="8.00">tree</text>
<polyline fill="none" stroke="black" points="163,-284.5 163,-318.5 "/>
<text text-anchor="middle" x="180.5" y="-308.1" font-family="Times New Roman,serif" font-size="8.00">value</text>
<polyline fill="none" stroke="black" points="163,-301.5 198,-301.5 "/>
<text text-anchor="middle" x="180.5" y="-291.1" font-family="Times New Roman,serif" font-size="8.00">10</text>
<polyline fill="none" stroke="black" points="198,-284.5 198,-318.5 "/>
<text text-anchor="middle" x="212" y="-299.6" font-family="Times New Roman,serif" font-size="8.00">left</text>
<polyline fill="none" stroke="black" points="226,-284.5 226,-318.5 "/>
<text text-anchor="middle" x="242.5" y="-299.6" font-family="Times New Roman,serif" font-size="8.00">right</text>
</g>
<!-- 1&#45;&gt;2 -->
<g id="edge8" class="edge"><title>1:f1&#45;&gt;2:name</title>
<path fill="none" stroke="black" d="M212.5,-284C212.5,-236.968 119.866,-289.415 105.392,-257.926"/>
<polygon fill="black" stroke="black" points="108.811,-257.168 103.5,-248 101.934,-258.479 108.811,-257.168"/>
</g>
<!-- 1&#45;&gt;6 -->
<g id="edge9" class="edge"><title>1:f2&#45;&gt;6:name</title>
<path fill="none" stroke="black" d="M260.5,-301.5C302.933,-301.5 292.553,-241.671 326.32,-231.855"/>
<polygon fill="black" stroke="black" points="327.049,-235.289 336.5,-230.5 326.126,-228.35 327.049,-235.289"/>
</g>
</g>
</svg>
